<?xml version="1.0" encoding="utf-8"?>
<!-- Generator: Adobe Illustrator 18.1.1, SVG Export Plug-In . SVG Version: 6.00 Build 0)  -->
<svg version="1.1" id="Layer_1" xmlns="http://www.w3.org/2000/svg" xmlns:xlink="http://www.w3.org/1999/xlink" x="0px" y="0px"
	 viewBox="0 0 960 560" enable-background="new 0 0 960 560" xml:space="preserve">
<text transform="matrix(1 0 0 1 97.9185 250.834)"><tspan x="0" y="0" font-family="'MyriadPro-Regular'" font-size="16">Interact with our </tspan><tspan x="-6.2" y="19.2" font-family="'MyriadPro-Regular'" font-size="16">Counsellor for free </tspan></text>
<text transform="matrix(1 0 0 1 279.5177 354.2551)"><tspan x="0" y="0" font-family="'MyriadPro-Regular'" font-size="16">Get perfect </tspan><tspan x="-30.4" y="19.2" font-family="'MyriadPro-Regular'" font-size="16">allocation of mentor </tspan></text>
<text transform="matrix(1 0 0 1 596.8458 355.2544)"><tspan x="0" y="0" font-family="'MyriadPro-Regular'" font-size="16">Get your first </tspan><tspan x="-13.1" y="19.2" font-family="'MyriadPro-Regular'" font-size="16">free class with us </tspan></text>
<text transform="matrix(1 0 0 1 761.4896 250.2346)"><tspan x="0" y="0" font-family="'MyriadPro-Regular'" font-size="16">Confirm your </tspan><tspan x="17.4" y="19.2" font-family="'MyriadPro-Regular'" font-size="16">Mentor! </tspan></text>
<line fill="none" stroke="#100534" stroke-width="2" stroke-miterlimit="10" x1="558.5" y1="239.2" x2="723.8" y2="239.2"/>
<line fill="none" stroke="#100534" stroke-width="2" stroke-miterlimit="10" x1="227.8" y1="239.2" x2="393.2" y2="239.2"/>
<text transform="matrix(1 0 0 1 120.0533 224.6563)" opacity="0.57" fill="#009E4B" font-family="'OpenSans-Bold'" font-size="17.6978">Step 01</text>
<g>
	<g opacity="0.19">
		<path fill="none" stroke="#00344C" stroke-width="3" stroke-miterlimit="10" d="M147.5,161.3c45.2,0,81.9,36.7,81.9,81.9
			c0,45.2-36.7,81.9-81.9,81.9"/>
	</g>
	<g>
		<path fill="none" stroke="#100534" stroke-width="3" stroke-miterlimit="10" d="M147.5,157.3c45.2,0,81.9,36.7,81.9,81.9
			c0,45.2-36.7,81.9-81.9,81.9"/>
	</g>
</g>
<g>
	<path fill="none" stroke="#175E58" stroke-width="10" stroke-miterlimit="10" d="M147.5,321.1c-45.2,0-81.9-36.7-81.9-81.9
		c0-45.2,36.7-81.9,81.9-81.9"/>
</g>
<g>
	<g opacity="0.5">
		<circle fill="#939393" cx="68.6" cy="243.2" r="27.4"/>
	</g>
	<g>
		<circle fill="#FFFFFF" cx="65.6" cy="239.2" r="27.4"/>
	</g>
</g>
<linearGradient id="SVGID_1_" gradientUnits="userSpaceOnUse" x1="51.4679" y1="225.0007" x2="79.8281" y2="253.361">
	<stop  offset="0" style="stop-color:#175E58"/>
	<stop  offset="0.5357" style="stop-color:#1E6D68"/>
	<stop  offset="0.6531" style="stop-color:#288381"/>
	<stop  offset="1" style="stop-color:#2C8C8A"/>
</linearGradient>
<path fill="url(#SVGID_1_)" d="M83.7,230.1c8,17.9-9.3,35.1-27.1,27.1c-4-1.8-7.2-5-9-9c-8-17.9,9.3-35.1,27.1-27.1
	C78.7,222.9,81.9,226.1,83.7,230.1z"/>
<g>
	<g opacity="0.19">
		<path fill="none" stroke="#00344C" stroke-width="3" stroke-miterlimit="10" d="M643.6,430.1c-45.2,0-81.9-36.7-81.9-81.9
			s36.7-81.9,81.9-81.9"/>
	</g>
	<g>
		<path fill="none" stroke="#100534" stroke-width="3" stroke-miterlimit="10" d="M643.6,426.1c-45.2,0-81.9-36.7-81.9-81.9
			s36.7-81.9,81.9-81.9"/>
	</g>
</g>
<g>
	<path fill="none" stroke="#175E58" stroke-width="10" stroke-miterlimit="10" d="M643.6,262.3c45.2,0,81.9,36.7,81.9,81.9
		s-36.7,81.9-81.9,81.9"/>
</g>
<g>
	<g opacity="0.5">
		<path fill="#939393" d="M703.5,360c-10.1-24,12.7-46.8,36.7-36.7c5.9,2.5,10.7,7.2,13.1,13.1c10.1,24-12.7,46.8-36.7,36.7
			C710.8,370.6,706,365.9,703.5,360z"/>
	</g>
	<g>
		<path fill="#FFFFFF" d="M700.5,356c-10.1-24,12.7-46.8,36.7-36.7c5.9,2.5,10.7,7.2,13.1,13.1c10.1,24-12.7,46.8-36.7,36.7
			C707.8,366.6,703,361.9,700.5,356z"/>
	</g>
</g>
<radialGradient id="SVGID_2_" cx="725.4548" cy="344.2009" r="20.0537" gradientUnits="userSpaceOnUse">
	<stop  offset="0" style="stop-color:#175E58"/>
	<stop  offset="0.4941" style="stop-color:#288381"/>
	<stop  offset="1" style="stop-color:#1E6D68"/>
	<stop  offset="1" style="stop-color:#2C8C8A"/>
</radialGradient>
<path fill="url(#SVGID_2_)" d="M707.4,353.3c-8-17.9,9.3-35.1,27.1-27.1c4,1.8,7.2,5,9,9c8,17.9-9.3,35.1-27.1,27.1
	C712.4,360.5,709.2,357.3,707.4,353.3z"/>
<g>
	<text transform="matrix(1 0 0 1 612.4542 333.5244)" fill="#009E4B" font-family="'OpenSans-Bold'" font-size="17.6978">Step 03</text>
</g>
<g>
	<circle fill="none" stroke="#FFFFFF" stroke-miterlimit="10" cx="724.5" cy="341.6" r="7.2"/>
	<line fill="none" stroke="#FFFFFF" stroke-miterlimit="10" x1="727.9" y1="348" x2="731.9" y2="356.2"/>
</g>
<path fill="none" stroke="#FFFFFF" stroke-linecap="round" stroke-miterlimit="10" d="M723.1,337.8c0,0-4.6,3.6,0,7.4"/>
<g>
	<g opacity="0.19">
		<path fill="none" stroke="#00344C" stroke-width="3" stroke-miterlimit="10" d="M805,325.1c-45.2,0-81.9-36.7-81.9-81.9
			c0-45.2,36.7-81.9,81.9-81.9"/>
	</g>
	<g>
		<path fill="none" stroke="#100534" stroke-width="3" stroke-miterlimit="10" d="M805,321.1c-45.2,0-81.9-36.7-81.9-81.9
			c0-45.2,36.7-81.9,81.9-81.9"/>
	</g>
</g>
<g>
	<path fill="none" stroke="#175E58" stroke-width="10" stroke-miterlimit="10" d="M805,157.3c45.2,0,81.9,36.7,81.9,81.9
		c0,45.2-36.7,81.9-81.9,81.9"/>
</g>
<g>
	<g opacity="0.5">
		<path fill="#939393" d="M864.9,254.9c-10.1-24,12.7-46.8,36.7-36.7c5.9,2.5,10.7,7.2,13.1,13.1c10.1,24-12.7,46.8-36.7,36.7
			C872.2,265.6,867.4,260.9,864.9,254.9z"/>
	</g>
	<g>
		<path fill="#FFFFFF" d="M861.9,250.9c-10.1-24,12.7-46.8,36.7-36.7c5.9,2.5,10.7,7.2,13.1,13.1c10.1,24-12.7,46.8-36.7,36.7
			C869.2,261.6,864.4,256.9,861.9,250.9z"/>
	</g>
</g>
<radialGradient id="SVGID_3_" cx="886.8556" cy="239.1809" r="20.0537" gradientUnits="userSpaceOnUse">
	<stop  offset="0" style="stop-color:#175E58"/>
	<stop  offset="0.4941" style="stop-color:#288381"/>
	<stop  offset="1" style="stop-color:#1E6D68"/>
	<stop  offset="1" style="stop-color:#2C8C8A"/>
</radialGradient>
<path fill="url(#SVGID_3_)" d="M868.8,248.3c-8-17.9,9.3-35.1,27.1-27.1c4,1.8,7.2,5,9,9c8,17.9-9.3,35.1-27.1,27.1
	C873.8,255.5,870.6,252.2,868.8,248.3z"/>
<g>
	<text transform="matrix(1 0 0 1 773.8546 228.5049)" fill="#009E4B" font-family="'OpenSans-Bold'" font-size="17.6978">Step 04</text>
</g>
<text transform="matrix(1 0 0 1 286.0425 332.6758)" opacity="0.57" fill="#009E4B" font-family="'OpenSans-Bold'" font-size="17.6978">Step 02</text>
<g>
	<g opacity="0.19">
		<path fill="none" stroke="#00344C" stroke-width="3" stroke-miterlimit="10" d="M308.5,266.3c45.2,0,81.9,36.7,81.9,81.9
			c0,45.2-36.7,81.9-81.9,81.9"/>
	</g>
	<g>
		<path fill="none" stroke="#100534" stroke-width="3" stroke-miterlimit="10" d="M308.5,262.3c45.2,0,81.9,36.7,81.9,81.9
			c0,45.2-36.7,81.9-81.9,81.9"/>
	</g>
</g>
<g>
	<path fill="none" stroke="#175E58" stroke-width="10" stroke-miterlimit="10" d="M308.5,426.1c-45.2,0-81.9-36.7-81.9-81.9
		c0-45.2,36.7-81.9,81.9-81.9"/>
</g>
<g>
	<g opacity="0.5">
		<path fill="#939393" d="M254.6,336.4c10.1,24-12.7,46.8-36.7,36.7c-5.9-2.5-10.7-7.2-13.1-13.1c-10.1-24,12.7-46.8,36.7-36.7
			C247.3,325.8,252.1,330.5,254.6,336.4z"/>
	</g>
	<g>
		<path fill="#FFFFFF" d="M251.6,332.4c10.1,24-12.7,46.8-36.7,36.7c-5.9-2.5-10.7-7.2-13.1-13.1c-10.1-24,12.7-46.8,36.7-36.7
			C244.3,321.8,249.1,326.5,251.6,332.4z"/>
	</g>
</g>
<linearGradient id="SVGID_4_" gradientUnits="userSpaceOnUse" x1="206.5846" y1="344.2009" x2="246.6919" y2="344.2009">
	<stop  offset="0" style="stop-color:#175E58"/>
	<stop  offset="0.5357" style="stop-color:#1E6D68"/>
	<stop  offset="0.6531" style="stop-color:#288381"/>
	<stop  offset="1" style="stop-color:#2C8C8A"/>
</linearGradient>
<path fill="url(#SVGID_4_)" d="M244.7,335.1c8,17.9-9.3,35.1-27.1,27.1c-4-1.8-7.2-5-9-9c-8-17.9,9.3-35.1,27.1-27.1
	C239.7,327.9,242.9,331.1,244.7,335.1z"/>
<g>
	<polyline fill="none" stroke="#FFFFFF" stroke-linecap="round" stroke-miterlimit="10" points="217.4,334.8 217.4,352 234.9,352 	
		"/>
	<path fill="none" stroke="#FFFFFF" stroke-linecap="round" stroke-miterlimit="10" d="M217.5,346.2c0.3-0.4,5-4.1,5-4.1l3.7,4.8
		l8.1-8.6"/>
	<polyline fill="none" stroke="#FFFFFF" stroke-linecap="round" stroke-miterlimit="10" points="228.4,338.6 235.4,337 234.6,344.6 
			"/>
</g>
<g>
	<line fill="none" stroke="#100534" stroke-width="2" stroke-miterlimit="10" x1="534.2" y1="283.8" x2="569.4" y2="308.3"/>
	<g>
		<g opacity="0.5">
			<circle fill="#939393" cx="572.4" cy="312.3" r="6.6"/>
		</g>
		<g>
			
				<radialGradient id="SVGID_5_" cx="569.3849" cy="49.5103" r="6.5638" gradientTransform="matrix(1 0 0 -1 0 357.8095)" gradientUnits="userSpaceOnUse">
				<stop  offset="0" style="stop-color:#175E58"/>
				<stop  offset="0.4941" style="stop-color:#288381"/>
				<stop  offset="1" style="stop-color:#1E6D68"/>
				<stop  offset="1" style="stop-color:#2C8C8A"/>
			</radialGradient>
			<circle fill="url(#SVGID_5_)" cx="569.4" cy="308.3" r="6.6"/>
		</g>
	</g>
</g>
<g>
	<g opacity="0.5">
		<path fill="#939393" d="M721.1,240.2c-2.6,5.8,3,11.4,8.9,8.9c1.3-0.6,2.4-1.7,3-3c2.6-5.8-3-11.4-8.9-8.9
			C722.8,237.8,721.7,238.9,721.1,240.2z"/>
	</g>
	<g>
		<radialGradient id="SVGID_6_" cx="724.0422" cy="239.1809" r="6.5637" gradientUnits="userSpaceOnUse">
			<stop  offset="0" style="stop-color:#175E58"/>
			<stop  offset="0.4941" style="stop-color:#288381"/>
			<stop  offset="1" style="stop-color:#1E6D68"/>
			<stop  offset="1" style="stop-color:#2C8C8A"/>
		</radialGradient>
		<path fill="url(#SVGID_6_)" d="M718.1,236.2c-2.6,5.8,3,11.4,8.9,8.9c1.3-0.6,2.4-1.7,3-3c2.6-5.8-3-11.4-8.9-8.9
			C719.8,233.8,718.7,234.9,718.1,236.2z"/>
	</g>
</g>
<g>
	<g opacity="0.5">
		<circle fill="#939393" cx="232.2" cy="243.2" r="6.6"/>
	</g>
	<g>
		<radialGradient id="SVGID_7_" cx="229.16" cy="239.1809" r="6.5638" gradientUnits="userSpaceOnUse">
			<stop  offset="0" style="stop-color:#175E58"/>
			<stop  offset="0.4941" style="stop-color:#288381"/>
			<stop  offset="1" style="stop-color:#1E6D68"/>
			<stop  offset="1" style="stop-color:#2C8C8A"/>
		</radialGradient>
		<circle fill="url(#SVGID_7_)" cx="229.2" cy="239.2" r="6.6"/>
	</g>
</g>
<g>
	<line fill="none" stroke="#100534" stroke-width="2" stroke-miterlimit="10" x1="418" y1="283.8" x2="382.8" y2="308.3"/>
	<g>
		<g opacity="0.5">
			<circle fill="#939393" cx="385.8" cy="312.3" r="6.6"/>
		</g>
		<g>
			
				<radialGradient id="SVGID_8_" cx="545.661" cy="49.5103" r="6.5638" gradientTransform="matrix(-1 0 0 -1 928.4762 357.8095)" gradientUnits="userSpaceOnUse">
				<stop  offset="0" style="stop-color:#175E58"/>
				<stop  offset="0.4941" style="stop-color:#288381"/>
				<stop  offset="1" style="stop-color:#1E6D68"/>
				<stop  offset="1" style="stop-color:#2C8C8A"/>
			</radialGradient>
			<circle fill="url(#SVGID_8_)" cx="382.8" cy="308.3" r="6.6"/>
		</g>
	</g>
</g>
<g>
	<circle fill="#FFFFFF" cx="476" cy="239.2" r="94.5"/>
</g>
<g>
	<path fill="#100534" d="M473.6,335c-0.8,0-1.4-0.6-1.4-1.4l0,0c0-0.8,0.6-1.4,1.4-1.4l0,0c0.8,0,1.4,0.7,1.4,1.4l0,0
		C475,334.4,474.4,335,473.6,335L473.6,335C473.6,335,473.6,335,473.6,335z M480,333.6c0-0.8,0.5-1.4,1.3-1.5l0,0
		c0.8,0,1.4,0.5,1.5,1.3l0,0c0,0.8-0.5,1.4-1.3,1.5l0,0c0,0-0.1,0-0.1,0l0,0C480.7,334.9,480.1,334.3,480,333.6z M465.7,334.5
		c-0.8-0.1-1.3-0.8-1.2-1.5l0,0c0.1-0.8,0.8-1.3,1.5-1.2l0,0c0.8,0.1,1.3,0.8,1.2,1.5l0,0c-0.1,0.7-0.7,1.2-1.4,1.2l0,0
		C465.8,334.5,465.7,334.5,465.7,334.5z M487.8,332.9c-0.1-0.8,0.4-1.5,1.2-1.6l0,0c0.8-0.1,1.5,0.4,1.6,1.2l0,0
		c0.1,0.8-0.4,1.5-1.2,1.6l0,0c-0.1,0-0.1,0-0.2,0l0,0C488.5,334.1,487.9,333.6,487.8,332.9z M457.8,333.3c-0.7-0.1-1.2-0.9-1.1-1.6
		l0,0c0.1-0.8,0.9-1.2,1.6-1.1l0,0c0.7,0.1,1.2,0.9,1.1,1.6l0,0c-0.1,0.7-0.7,1.1-1.4,1.1l0,0C458,333.3,457.9,333.3,457.8,333.3z
		 M495.5,331.7c-0.2-0.7,0.3-1.5,1.1-1.7l0,0c0.7-0.2,1.5,0.3,1.7,1.1l0,0c0.2,0.7-0.3,1.5-1,1.7l0,0l0,0l0,0c-0.1,0-0.2,0-0.3,0
		l0,0C496.2,332.7,495.6,332.3,495.5,331.7z M450.1,331.5c-0.7-0.2-1.2-1-1-1.7l0,0c0.2-0.7,1-1.2,1.7-1l0,0c0.7,0.2,1.2,1,1,1.7
		l0,0c-0.2,0.6-0.7,1-1.3,1l0,0C450.4,331.5,450.2,331.5,450.1,331.5z M503.1,329.7c-0.2-0.7,0.2-1.5,0.9-1.7l0,0
		c0.7-0.2,1.5,0.2,1.7,0.9l0,0c0.2,0.7-0.2,1.5-0.9,1.7l0,0c-0.1,0-0.3,0.1-0.4,0.1l0,0C503.8,330.7,503.3,330.3,503.1,329.7z
		 M442.6,329C442.6,329,442.6,329,442.6,329L442.6,329c-0.7-0.3-1.1-1.1-0.8-1.8l0,0c0.3-0.7,1.1-1.1,1.8-0.8l0,0
		c0.7,0.3,1.1,1.1,0.8,1.8l0,0c-0.2,0.6-0.7,0.9-1.3,0.9l0,0C442.9,329.1,442.8,329.1,442.6,329z M510.5,327.2
		c-0.3-0.7,0-1.5,0.8-1.8l0,0c0.7-0.3,1.5,0.1,1.8,0.8l0,0c0.3,0.7,0,1.5-0.8,1.8l0,0c-0.2,0.1-0.4,0.1-0.5,0.1l0,0
		C511.2,328.1,510.7,327.7,510.5,327.2z M435.3,326c-0.7-0.3-1-1.2-0.7-1.8l0,0c0.3-0.7,1.2-1,1.9-0.7l0,0c0.7,0.3,1,1.2,0.7,1.8
		l0,0c-0.2,0.5-0.7,0.8-1.3,0.8l0,0C435.7,326.1,435.5,326.1,435.3,326z M517.6,324.1c-0.3-0.7-0.1-1.5,0.6-1.9l0,0
		c0.7-0.4,1.5-0.1,1.9,0.6l0,0c0.3,0.7,0.1,1.5-0.6,1.9l0,0l0,0l0,0c-0.2,0.1-0.4,0.1-0.6,0.1l0,0
		C518.3,324.8,517.8,324.5,517.6,324.1z M428.3,322.3c-0.7-0.4-0.9-1.2-0.5-1.9l0,0c0.4-0.7,1.2-0.9,1.9-0.5l0,0
		c0.7,0.4,0.9,1.2,0.5,1.9l0,0c-0.3,0.4-0.7,0.7-1.2,0.7l0,0C428.7,322.5,428.5,322.4,428.3,322.3z M524.5,320.3
		c-0.4-0.7-0.2-1.5,0.4-1.9l0,0c0.7-0.4,1.5-0.2,1.9,0.4l0,0c0.4,0.7,0.2,1.5-0.4,1.9l0,0c-0.2,0.1-0.5,0.2-0.7,0.2l0,0
		C525.2,321,524.7,320.8,524.5,320.3z M421.6,318.1c-0.6-0.4-0.8-1.3-0.3-1.9l0,0c0.4-0.6,1.3-0.8,1.9-0.3l0,0
		c0.6,0.4,0.8,1.3,0.3,1.9l0,0c-0.3,0.4-0.7,0.6-1.1,0.6l0,0C422.1,318.3,421.8,318.2,421.6,318.1z M531,316.1
		c-0.5-0.6-0.3-1.5,0.3-1.9l0,0c0.6-0.5,1.5-0.3,1.9,0.3l0,0c0.5,0.6,0.3,1.5-0.3,1.9l0,0c-0.3,0.2-0.5,0.3-0.8,0.3l0,0
		C531.7,316.6,531.3,316.4,531,316.1z M415.2,313.3L415.2,313.3L415.2,313.3c-0.6-0.5-0.7-1.4-0.2-2l0,0c0.5-0.6,1.4-0.7,2-0.2h0
		c0.6,0.5,0.7,1.4,0.2,2l0,0c-0.3,0.3-0.7,0.5-1.1,0.5l0,0C415.8,313.6,415.5,313.5,415.2,313.3z M537.1,311.3
		c-0.5-0.6-0.5-1.5,0.1-2l0,0c0.6-0.5,1.5-0.4,2,0.1l0,0c0.5,0.6,0.4,1.5-0.1,2l0,0c-0.3,0.2-0.6,0.3-0.9,0.3l0,0
		C537.8,311.7,537.4,311.6,537.1,311.3z M409.3,308c-0.5-0.5-0.6-1.4,0-2l0,0c0.5-0.5,1.4-0.6,2,0l0,0c0.5,0.5,0.6,1.4,0,2l0,0
		c-0.3,0.3-0.6,0.4-1,0.4l0,0C409.9,308.4,409.6,308.3,409.3,308z M542.9,306c-0.6-0.5-0.6-1.4,0-2v0c0.5-0.5,1.4-0.6,2,0l0,0
		c0.5,0.5,0.6,1.4,0,2l0,0c0,0,0,0,0,0l0,0c-0.3,0.3-0.6,0.4-1,0.4l0,0C543.5,306.4,543.2,306.2,542.9,306z M403.9,302.3
		L403.9,302.3L403.9,302.3c-0.5-0.6-0.4-1.5,0.1-2l0,0c0.6-0.5,1.5-0.4,2,0.1l0,0c0.5,0.6,0.4,1.5-0.1,2l0,0
		c-0.3,0.2-0.6,0.3-0.9,0.3l0,0C404.5,302.7,404.1,302.6,403.9,302.3z M548.2,300.2c-0.6-0.5-0.7-1.4-0.2-2l0,0
		c0.5-0.6,1.4-0.7,2-0.2l0,0c0.6,0.5,0.7,1.4,0.2,2l0,0l0,0l0,0c-0.3,0.3-0.7,0.5-1.1,0.5l0,0C548.7,300.5,548.4,300.4,548.2,300.2z
		 M398.9,296.1c-0.5-0.6-0.3-1.5,0.3-1.9l0,0c0.6-0.5,1.5-0.3,1.9,0.3l0,0c0.5,0.6,0.3,1.5-0.3,1.9l0,0c-0.3,0.2-0.5,0.3-0.8,0.3
		l0,0C399.6,296.7,399.2,296.5,398.9,296.1z M553,294.1c-0.6-0.4-0.8-1.3-0.3-1.9l0,0c0.4-0.6,1.3-0.8,1.9-0.4l0,0
		c0.6,0.4,0.8,1.3,0.3,1.9l0,0c-0.3,0.4-0.7,0.6-1.1,0.6l0,0C553.5,294.3,553.2,294.2,553,294.1z M394.5,289.5L394.5,289.5
		L394.5,289.5c-0.4-0.6-0.2-1.5,0.4-1.9l0,0c0.7-0.4,1.5-0.2,1.9,0.5h0c0.4,0.6,0.2,1.5-0.5,1.9l0,0c-0.2,0.1-0.5,0.2-0.7,0.2l0,0
		C395.2,290.2,394.7,290,394.5,289.5z M557.2,287.5c-0.7-0.4-0.9-1.2-0.5-1.9v0c0.4-0.7,1.2-0.9,1.9-0.5l0,0
		c0.7,0.4,0.9,1.2,0.5,1.9l0,0c-0.3,0.4-0.7,0.7-1.2,0.7l0,0C557.7,287.7,557.5,287.6,557.2,287.5z M390.6,282.6L390.6,282.6
		L390.6,282.6c-0.3-0.7-0.1-1.5,0.6-1.9l0,0c0.7-0.4,1.5-0.1,1.9,0.6l0,0c0.3,0.7,0.1,1.5-0.6,1.9l0,0c-0.2,0.1-0.4,0.2-0.6,0.2l0,0
		C391.3,283.4,390.8,283.1,390.6,282.6z M561,280.7c-0.7-0.3-1-1.2-0.7-1.9l0,0c0.3-0.7,1.1-1,1.8-0.7l0,0c0.7,0.3,1,1.2,0.7,1.9
		l0,0l0,0l0,0c-0.2,0.5-0.7,0.8-1.3,0.8l0,0C561.4,280.8,561.2,280.7,561,280.7z M387.3,275.4c-0.3-0.7,0-1.5,0.8-1.8l0,0
		c0.7-0.3,1.5,0.1,1.8,0.8l0,0c0.3,0.7,0,1.5-0.8,1.8l0,0c-0.2,0.1-0.4,0.1-0.5,0.1l0,0C388,276.3,387.5,276,387.3,275.4z
		 M564.1,273.5c-0.7-0.3-1.1-1.1-0.8-1.8l0,0c0.3-0.7,1.1-1.1,1.8-0.8l0,0c0.7,0.3,1.1,1.1,0.8,1.8l0,0l0,0l0,0
		c-0.2,0.6-0.7,0.9-1.3,0.9l0,0C564.4,273.6,564.3,273.6,564.1,273.5z M384.6,268c-0.2-0.7,0.2-1.5,0.9-1.7l0,0
		c0.7-0.2,1.5,0.2,1.7,0.9l0,0c0.2,0.7-0.2,1.5-0.9,1.7l0,0c-0.1,0-0.3,0.1-0.4,0.1l0,0C385.3,269,384.8,268.6,384.6,268z
		 M566.6,266.1c-0.7-0.2-1.2-1-1-1.7l0,0c0.2-0.7,1-1.2,1.7-1l0,0c0.7,0.2,1.2,1,1,1.7l0,0l0,0l0,0c-0.2,0.6-0.7,1-1.3,1l0,0
		C566.9,266.2,566.8,266.1,566.6,266.1z M382.5,260.4c-0.2-0.8,0.3-1.5,1.1-1.7l0,0c0.7-0.2,1.5,0.3,1.7,1.1l0,0
		c0.2,0.7-0.3,1.5-1,1.7l0,0c-0.1,0-0.2,0-0.3,0l0,0C383.2,261.4,382.7,261,382.5,260.4z M568.5,258.5c-0.8-0.1-1.2-0.9-1.1-1.6l0,0
		c0.1-0.8,0.9-1.3,1.6-1.1l0,0c0.8,0.1,1.2,0.9,1.1,1.6l0,0l0,0l0,0c-0.1,0.7-0.7,1.1-1.4,1.1l0,0
		C568.7,258.6,568.6,258.6,568.5,258.5z M381.1,252.6C381.1,252.6,381.1,252.6,381.1,252.6L381.1,252.6c-0.1-0.8,0.4-1.5,1.2-1.6
		l0,0c0.8-0.1,1.5,0.4,1.6,1.2l0,0c0.1,0.8-0.4,1.5-1.2,1.6l0,0c-0.1,0-0.1,0-0.2,0l0,0C381.8,253.8,381.2,253.3,381.1,252.6z
		 M569.8,250.8c-0.8-0.1-1.3-0.8-1.2-1.5l0,0c0.1-0.8,0.8-1.3,1.5-1.2l0,0c0.8,0.1,1.3,0.8,1.2,1.5l0,0c-0.1,0.7-0.7,1.2-1.4,1.2
		l0,0C569.9,250.8,569.9,250.8,569.8,250.8z M380.3,244.7c0-0.8,0.5-1.4,1.3-1.5l0,0c0.8,0,1.4,0.5,1.5,1.3l0,0
		c0,0.8-0.5,1.4-1.3,1.5l0,0c0,0-0.1,0-0.1,0l0,0C381,246,380.4,245.4,380.3,244.7z M570.5,243.1c-0.8,0-1.4-0.7-1.4-1.4l0,0
		c0,0,0-0.1,0-0.1l0,0c0,0,0-0.1,0-0.1l0,0c0-0.8,0.6-1.4,1.4-1.4l0,0c0.8,0,1.4,0.7,1.4,1.4l0,0c0,0,0,0.1,0,0.1l0,0
		c0,0,0,0.1,0,0.1l0,0l0,0l0,0C571.9,242.5,571.2,243.1,570.5,243.1L570.5,243.1C570.5,243.1,570.5,243.1,570.5,243.1z M381.6,238.2
		c-0.8,0-1.4-0.7-1.3-1.4l0,0c0-0.8,0.7-1.4,1.4-1.3l0,0c0.8,0,1.4,0.7,1.3,1.4l0,0C383,237.6,382.3,238.2,381.6,238.2L381.6,238.2
		C381.6,238.2,381.6,238.2,381.6,238.2z M569,233.7c0-0.8,0.5-1.4,1.3-1.5l0,0c0.8,0,1.4,0.5,1.5,1.3l0,0c0,0.8-0.5,1.4-1.3,1.5l0,0
		c0,0-0.1,0-0.1,0l0,0C569.6,235,569,234.5,569,233.7z M382,230.4c-0.8-0.1-1.3-0.8-1.2-1.5l0,0c0.1-0.8,0.8-1.3,1.5-1.2l0,0
		c0.8,0.1,1.3,0.8,1.2,1.5l0,0c-0.1,0.7-0.7,1.2-1.4,1.2l0,0C382.1,230.4,382,230.4,382,230.4z M568.2,226.1
		c-0.1-0.8,0.4-1.5,1.2-1.6l0,0c0.8-0.1,1.5,0.4,1.6,1.2l0,0c0.1,0.8-0.4,1.5-1.2,1.6l0,0c-0.1,0-0.1,0-0.2,0l0,0
		C568.9,227.3,568.3,226.8,568.2,226.1z M383,222.6c-0.8-0.1-1.3-0.9-1.1-1.6l0,0c0.1-0.8,0.9-1.3,1.6-1.1l0,0
		c0.7,0.1,1.2,0.9,1.1,1.6l0,0c-0.1,0.7-0.7,1.1-1.4,1.1l0,0C383.2,222.7,383.1,222.7,383,222.6z M566.8,218.5L566.8,218.5
		c-0.2-0.8,0.3-1.5,1-1.7l0,0c0.7-0.2,1.5,0.3,1.7,1l0,0l0,0l0,0c0.2,0.8-0.3,1.5-1.1,1.7l0,0c-0.1,0-0.2,0-0.3,0l0,0
		C567.6,219.6,567,219.2,566.8,218.5z M384.7,215c-0.7-0.2-1.2-1-1-1.7l0,0c0,0,0,0,0,0l0,0c0.2-0.7,1-1.2,1.7-1l0,0
		c0.7,0.2,1.2,1,1,1.7l0,0c-0.2,0.6-0.7,1-1.3,1l0,0C384.9,215.1,384.8,215.1,384.7,215z M564.8,211.1c-0.2-0.7,0.2-1.5,0.9-1.7l0,0
		c0.7-0.2,1.5,0.2,1.7,0.9l0,0c0.2,0.7-0.2,1.5-0.9,1.7l0,0c-0.1,0-0.3,0.1-0.4,0.1l0,0C565.6,212.1,565,211.7,564.8,211.1z
		 M387,207.6c-0.7-0.3-1.1-1.1-0.8-1.8l0,0c0,0,0,0,0,0l0,0c0.3-0.7,1.1-1.1,1.8-0.8l0,0c0.7,0.3,1.1,1.1,0.8,1.8l0,0
		c-0.2,0.6-0.7,0.9-1.3,0.9l0,0C387.3,207.6,387.1,207.6,387,207.6z M562.2,203.9c-0.3-0.7,0-1.5,0.8-1.8l0,0
		c0.7-0.3,1.5,0.1,1.8,0.8l0,0c0.3,0.7-0.1,1.5-0.8,1.8l0,0c-0.2,0.1-0.4,0.1-0.5,0.1l0,0C562.9,204.7,562.4,204.4,562.2,203.9z
		 M389.9,200.3c-0.7-0.3-1-1.1-0.7-1.8l0,0c0.3-0.7,1.2-1,1.9-0.7l0,0c0.7,0.3,1,1.2,0.7,1.8l0,0c-0.2,0.5-0.7,0.8-1.3,0.8l0,0
		C390.3,200.4,390.1,200.4,389.9,200.3z M559,196.9c-0.3-0.7-0.1-1.5,0.6-1.9l0,0c0.7-0.3,1.5-0.1,1.9,0.6l0,0
		c0.3,0.7,0.1,1.5-0.6,1.9l0,0c-0.2,0.1-0.4,0.1-0.6,0.1l0,0C559.7,197.6,559.2,197.4,559,196.9z M393.4,193.3
		c-0.7-0.4-0.9-1.2-0.5-1.9l0,0l0,0l0,0c0.4-0.7,1.2-0.9,1.9-0.5l0,0c0.7,0.4,0.9,1.2,0.5,1.9l0,0c-0.3,0.4-0.7,0.7-1.2,0.7l0,0
		C393.9,193.5,393.6,193.5,393.4,193.3z M555.2,190.2c-0.4-0.7-0.2-1.5,0.4-1.9l0,0c0.7-0.4,1.5-0.2,1.9,0.4l0,0l0,0l0,0
		c0.4,0.7,0.2,1.5-0.4,1.9l0,0c-0.2,0.1-0.5,0.2-0.7,0.2l0,0C555.9,190.8,555.5,190.6,555.2,190.2z M397.5,186.7
		c-0.6-0.4-0.8-1.3-0.3-1.9l0,0c0.4-0.6,1.3-0.8,1.9-0.4l0,0c0.6,0.4,0.8,1.3,0.4,1.9l0,0c-0.3,0.4-0.7,0.6-1.1,0.6l0,0
		C398,186.9,397.7,186.8,397.5,186.7z M550.9,183.8c-0.5-0.6-0.3-1.5,0.3-1.9l0,0c0.6-0.5,1.5-0.3,1.9,0.3l0,0l0,0l0,0
		c0.5,0.6,0.3,1.5-0.3,1.9l0,0c-0.3,0.2-0.5,0.3-0.8,0.3l0,0C551.6,184.4,551.2,184.2,550.9,183.8z M402.1,180.4
		c-0.6-0.5-0.7-1.4-0.2-2l0,0l0,0l0,0c0.5-0.6,1.4-0.7,2-0.2l0,0c0.6,0.5,0.7,1.4,0.2,1.9h0c-0.3,0.3-0.7,0.5-1.1,0.5l0,0
		C402.7,180.7,402.3,180.6,402.1,180.4z M546.1,177.8L546.1,177.8c-0.5-0.6-0.5-1.4,0.1-2l0,0c0.6-0.5,1.5-0.4,2,0.1l0,0l0,0l0,0
		c0.5,0.6,0.4,1.4-0.1,2l0,0c-0.3,0.2-0.6,0.3-0.9,0.3l0,0C546.7,178.3,546.3,178.1,546.1,177.8z M407.2,174.5c-0.6-0.5-0.6-1.4,0-2
		l0,0c0.5-0.5,1.4-0.6,2,0l0,0c0.5,0.5,0.6,1.4,0,2l0,0c-0.3,0.3-0.6,0.4-1,0.4l0,0C407.8,174.9,407.5,174.7,407.2,174.5z
		 M540.8,172.3c-0.6-0.5-0.6-1.4,0-2l0,0c0.5-0.6,1.4-0.6,2,0l0,0c0.5,0.5,0.6,1.4,0,2l0,0c-0.3,0.3-0.6,0.4-1,0.4l0,0
		C541.4,172.7,541,172.5,540.8,172.3z M412.8,169c-0.5-0.6-0.4-1.5,0.1-2l0,0c0.6-0.5,1.5-0.4,2,0.1l0,0c0.5,0.6,0.4,1.5-0.1,2l0,0
		c-0.3,0.2-0.6,0.3-0.9,0.3l0,0C413.4,169.5,413.1,169.3,412.8,169z M535,167.1c-0.6-0.5-0.7-1.4-0.2-2l0,0c0.5-0.6,1.4-0.7,2-0.2
		l0,0c0.6,0.5,0.7,1.4,0.2,2l0,0c-0.3,0.3-0.7,0.5-1.1,0.5l0,0C535.6,167.5,535.3,167.4,535,167.1z M418.8,164
		c-0.5-0.6-0.3-1.5,0.3-1.9l0,0c0.6-0.5,1.5-0.3,1.9,0.3l0,0c0.5,0.6,0.3,1.5-0.3,1.9l0,0c-0.2,0.2-0.5,0.3-0.8,0.3l0,0
		C419.5,164.6,419.1,164.4,418.8,164z M528.9,162.5L528.9,162.5c-0.6-0.4-0.8-1.3-0.4-1.9l0,0c0.4-0.6,1.3-0.8,1.9-0.4l0,0
		c0.6,0.4,0.8,1.3,0.4,1.9l0,0c-0.3,0.4-0.7,0.6-1.1,0.6l0,0C529.4,162.8,529.1,162.7,528.9,162.5z M425.2,159.5
		c-0.4-0.7-0.2-1.5,0.4-1.9l0,0c0.7-0.4,1.5-0.2,1.9,0.4l0,0c0.4,0.7,0.2,1.5-0.4,1.9l0,0c-0.2,0.1-0.5,0.2-0.7,0.2l0,0
		C425.9,160.2,425.4,160,425.2,159.5z M522.4,158.4c-0.7-0.4-0.9-1.2-0.5-1.9l0,0c0.4-0.7,1.2-0.9,1.9-0.5l0,0
		c0.7,0.4,0.9,1.2,0.5,1.9l0,0c-0.3,0.4-0.7,0.7-1.2,0.7l0,0C522.8,158.6,522.6,158.5,522.4,158.4z M431.9,155.6
		c-0.3-0.7-0.1-1.5,0.6-1.9l0,0c0.7-0.3,1.5-0.1,1.9,0.6l0,0c0.3,0.7,0.1,1.5-0.6,1.9l0,0c-0.2,0.1-0.4,0.2-0.6,0.2l0,0
		C432.7,156.4,432.2,156.1,431.9,155.6z M515.5,154.9L515.5,154.9c-0.7-0.3-1-1.2-0.7-1.8l0,0c0.3-0.7,1.2-1,1.8-0.7l0,0
		c0,0,0,0,0,0l0,0c0.7,0.3,1,1.2,0.7,1.9l0,0c-0.2,0.5-0.7,0.8-1.3,0.8l0,0C515.9,155,515.7,154.9,515.5,154.9z M439,152.2
		c-0.3-0.7,0.1-1.5,0.8-1.8l0,0l0,0l0,0c0.7-0.3,1.5,0,1.8,0.8l0,0c0.3,0.7-0.1,1.5-0.8,1.8l0,0c-0.2,0.1-0.3,0.1-0.5,0.1l0,0
		C439.7,153.1,439.2,152.8,439,152.2z M508.4,151.9c-0.7-0.3-1.1-1.1-0.8-1.8l0,0c0.3-0.7,1.1-1.1,1.8-0.8l0,0
		c0.7,0.3,1.1,1.1,0.8,1.8l0,0c-0.2,0.6-0.7,0.9-1.3,0.9l0,0C508.8,152,508.6,151.9,508.4,151.9z M446.3,149.5
		c-0.2-0.7,0.2-1.5,0.9-1.7l0,0c0.7-0.2,1.5,0.2,1.7,0.9l0,0c0.2,0.7-0.2,1.5-0.9,1.7l0,0c-0.1,0-0.3,0.1-0.4,0.1l0,0
		C447,150.4,446.4,150.1,446.3,149.5z M501.1,149.5L501.1,149.5c-0.7-0.2-1.2-1-1-1.7l0,0c0.2-0.7,1-1.2,1.7-1l0,0
		c0.7,0.2,1.2,1,1,1.7l0,0c-0.2,0.6-0.7,1-1.3,1l0,0C501.4,149.6,501.2,149.5,501.1,149.5z M453.8,147.3c-0.2-0.7,0.3-1.5,1-1.7l0,0
		c0.7-0.2,1.5,0.3,1.7,1l0,0c0.2,0.8-0.3,1.5-1,1.7l0,0c-0.1,0-0.2,0-0.3,0l0,0C454.5,148.4,453.9,148,453.8,147.3z M493.6,147.8
		c-0.7-0.1-1.2-0.9-1.1-1.6l0,0c0.1-0.8,0.9-1.2,1.6-1.1l0,0l0,0l0,0c0.8,0.1,1.2,0.9,1.1,1.6l0,0c-0.1,0.7-0.7,1.1-1.4,1.1l0,0
		C493.8,147.8,493.7,147.8,493.6,147.8z M461.4,145.8c-0.1-0.8,0.4-1.5,1.2-1.6l0,0c0.8-0.1,1.5,0.4,1.6,1.2l0,0
		c0.1,0.8-0.4,1.5-1.2,1.6l0,0c-0.1,0-0.1,0-0.2,0l0,0C462.1,147,461.5,146.5,461.4,145.8z M486,146.6L486,146.6
		c-0.8-0.1-1.3-0.8-1.2-1.5l0,0c0.1-0.8,0.8-1.3,1.5-1.2l0,0c0.8,0.1,1.3,0.8,1.2,1.5l0,0c-0.1,0.7-0.7,1.2-1.4,1.2l0,0
		C486.1,146.6,486.1,146.6,486,146.6z M469.2,144.9c0-0.8,0.5-1.4,1.3-1.5l0,0l0,0l0,0c0.8,0,1.4,0.5,1.5,1.3l0,0
		c0,0.8-0.5,1.4-1.3,1.5l0,0c0,0-0.1,0-0.1,0l0,0C469.8,146.2,469.2,145.7,469.2,144.9z M478.3,146.1c-0.8,0-1.4-0.7-1.4-1.4l0,0
		c0-0.8,0.7-1.4,1.4-1.4l0,0c0.8,0,1.4,0.7,1.4,1.4l0,0C479.7,145.5,479.1,146.1,478.3,146.1L478.3,146.1
		C478.4,146.1,478.4,146.1,478.3,146.1z"/>
</g>
<g>
	<path fill="none" stroke="#FFFFFF" stroke-miterlimit="10" d="M900.7,230.3c4.2,8.7-4.3,17.2-13,13c-1.6-0.8-2.9-2.1-3.7-3.7
		c-4.2-8.7,4.3-17.2,13-13C898.6,227.4,899.9,228.7,900.7,230.3z"/>
	<polyline fill="none" stroke="#FFFFFF" stroke-miterlimit="10" points="896.7,243.3 895.9,250.1 888.9,250.1 887.9,243.3 	"/>
</g>
<path fill="none" stroke="#FFFFFF" stroke-linecap="round" stroke-miterlimit="10" d="M889.5,231.3c0,0-4.6,3.6,0,7.4"/>
<line fill="none" stroke="#FFFFFF" stroke-miterlimit="10" x1="889.1" y1="254" x2="896" y2="254"/>
<path fill="none" stroke="#FFFFFF" stroke-linecap="round" stroke-miterlimit="10" d="M68,239.4c2-0.9,3.5-2.9,3.5-5.3
	c0-3.2-2.6-5.8-5.8-5.8s-5.8,2.6-5.8,5.8c0,2.4,1.4,4.4,3.5,5.3c-2.6,1-4.5,3.5-4.5,6.4v4.3h13.7v-4.3
	C72.5,242.8,70.6,240.3,68,239.4z"/>
<g>
	<g opacity="0.19">
		<path fill="#00344C" d="M553.2,206c33.3,75.9-39.5,148.7-115.4,115.4c-17.4-7.6-31.3-21.6-39-39
			c-33.3-75.9,39.5-148.7,115.4-115.4C531.6,174.6,545.6,188.6,553.2,206z"/>
	</g>
	<g>
		<path fill="#FFFFFF" d="M553.2,201c33.3,75.9-39.5,148.7-115.4,115.4c-17.4-7.6-31.3-21.6-39-39
			c-33.3-75.9,39.5-148.7,115.4-115.4C531.6,169.6,545.6,183.6,553.2,201z"/>
	</g>
</g>
<g>
	<radialGradient id="SVGID_9_" cx="476.0465" cy="239.1809" r="77.1241" gradientUnits="userSpaceOnUse">
		<stop  offset="0" style="stop-color:#175E58"/>
		<stop  offset="0.4941" style="stop-color:#288381"/>
		<stop  offset="1" style="stop-color:#1E6D68"/>
		<stop  offset="1" style="stop-color:#2C8C8A"/>
	</radialGradient>
	<path fill="url(#SVGID_9_)" d="M545.7,204.8c30,68.4-35.7,134.1-104,104c-15.7-6.9-28.4-19.5-35.3-35.3
		c-30-68.4,35.7-134.1,104-104C526.2,176.4,538.8,189.1,545.7,204.8z"/>
</g>
<text transform="matrix(1 0 0 1 444.9574 228.2772)"><tspan x="0" y="0" fill="#FFFFFF" font-family="'MyriadPro-Regular'" font-size="32.6295">How </tspan><tspan x="-32.4" y="39.2" fill="#FFFFFF" font-family="'MyriadPro-Regular'" font-size="32.6295">we works </tspan></text>
</svg>
